<svg width="200.000000" height="200.000000" viewBox="0 0 200 200" fill="none" xmlns="http://www.w3.org/2000/svg" xmlns:xlink="http://www.w3.org/1999/xlink">
	<desc>
			Created with Pixso.
	</desc>
	<defs>
		<linearGradient x1="-0.000015" y1="129.534668" x2="192.545242" y2="55.034721" id="paint_linear_8_6_0" gradientUnits="userSpaceOnUse">
			<stop stop-color="#C4C4C4"/>
			<stop stop-color="#363636"/>
			<stop offset="1.000000" stop-color="#11100F"/>
		</linearGradient>
		<linearGradient x1="9.045284" y1="146.034698" x2="186.545303" y2="49.534721" id="paint_linear_8_6_1" gradientUnits="userSpaceOnUse">
			<stop stop-color="#11100F"/>
			<stop offset="0.997783" stop-color="#383837"/>
		</linearGradient>
	</defs>
	<circle id="Эллипс 1" cx="100.000000" cy="100.000000" r="100.000000" fill="url(#paint_linear_8_6_0)" fill-opacity="1.000000"/>
	<circle id="Эллипс 1" cx="100.000000" cy="100.000000" r="99.000000" stroke="url(#paint_linear_8_6_1)" stroke-opacity="1.000000" stroke-width="2.000000"/>
	<path id="path" d="M185.33 78.08C186.47 77.81 187.18 76.69 186.95 75.56C186.78 74.68 186.08 74 185.2 73.85L172.87 71.71L158.49 69.19C157.75 69.08 157.41 68.22 157.85 67.62L166.53 55.92L173.25 46.84C173.79 46.11 173.74 45.11 173.13 44.44C172.57 43.82 171.66 43.64 170.9 44L162.81 47.87L148.33 54.8C147.63 55.13 146.82 54.57 146.89 53.8L148.49 37.88L149.83 24.44C149.89 23.72 149.53 23.02 148.91 22.66C148.03 22.16 146.92 22.45 146.39 23.32L141.72 31.21L132.83 46.22C132.41 46.92 131.38 46.86 131.05 46.12L123.92 30.2L114.89 10.01C114.61 9.39 114 9 113.32 9C112.31 9 111.51 9.88 111.62 10.89L112.91 22.64L115.28 44.19C115.37 45.08 114.35 45.64 113.65 45.08L96.68 31.54L72.57 12.31C72.07 11.92 71.42 11.79 70.82 11.97C69.5 12.35 68.99 13.95 69.85 15.02L80.69 28.6L99.65 52.33C100.27 53.11 99.49 54.21 98.55 53.9L69.69 44.32L36.57 33.32C35.66 33.02 34.65 33.29 34.02 34C33 35.14 33.3 36.91 34.62 37.68L63.44 54.03L88.79 68.43C89.64 68.91 89.36 70.21 88.37 70.29L11.58 76.62C10.31 76.73 9.26 77.68 9.04 78.93C8.76 80.53 9.89 82.03 11.5 82.21L70.31 88.6L91.55 90.91C92.43 91 92.76 92.11 92.08 92.67L75.62 106.24L24.73 148.21C23.58 149.16 23.38 150.83 24.26 152.02C25.09 153.14 26.63 153.49 27.86 152.82L108.61 109.05C109.36 108.64 110.25 109.29 110.07 110.13L106.13 129.12L94.39 185.74C94.04 187.42 95.33 189 97.05 189C98.14 189 99.12 188.35 99.55 187.35L120.94 137.19L130.3 115.24C130.66 114.4 131.88 114.45 132.17 115.32L139.69 137.96L150.16 169.46C150.64 170.92 152.42 171.46 153.64 170.53C154.27 170.05 154.6 169.26 154.5 168.47L150.91 141.75L146.96 112.38C146.83 111.4 148.05 110.84 148.71 111.59L168.38 133.81L175.66 142.05C176.53 143.03 178.1 142.91 178.8 141.8C179.18 141.2 179.21 140.44 178.87 139.82L168.56 120.95L157.05 99.89C156.61 99.07 157.41 98.15 158.28 98.47L186.33 108.81C187.56 109.26 188.88 108.42 188.99 107.12C189.04 106.44 188.74 105.78 188.19 105.37L175.43 95.99L161.23 85.56C160.53 85.06 160.75 83.98 161.59 83.78L178.73 79.67L185.33 78.08Z" fill="#FED42B" fill-opacity="1.000000" fill-rule="evenodd"/>
</svg>
